<mxfile host="app.diagrams.net" modified="2020-04-01T21:20:17.082Z" agent="5.0 (Windows NT 10.0; Win64; x64) AppleWebKit/537.36 (KHTML, like Gecko) Chrome/78.0.3904.108 Safari/537.36" etag="gzZqDH23r-jfnuiZYogP" version="12.9.6" type="github">
  <diagram id="Yv9RGQqT0qA8SDlagCZe" name="Page-1">
    <mxGraphModel dx="1278" dy="580" grid="1" gridSize="10" guides="1" tooltips="1" connect="1" arrows="1" fold="1" page="1" pageScale="1" pageWidth="850" pageHeight="1100" math="0" shadow="0">
      <root>
        <mxCell id="0" />
        <mxCell id="1" parent="0" />
        <mxCell id="pzt994sn538-VgkILGdD-2" value="" style="rounded=0;whiteSpace=wrap;html=1;" parent="1" vertex="1">
          <mxGeometry x="30" y="20" width="770" height="470" as="geometry" />
        </mxCell>
        <mxCell id="pzt994sn538-VgkILGdD-4" value="" style="rounded=0;whiteSpace=wrap;html=1;" parent="1" vertex="1">
          <mxGeometry x="40" y="45" width="740" height="50" as="geometry" />
        </mxCell>
        <mxCell id="pzt994sn538-VgkILGdD-5" value="" style="ellipse;whiteSpace=wrap;html=1;" parent="1" vertex="1">
          <mxGeometry x="50" y="45" width="70" height="50" as="geometry" />
        </mxCell>
        <mxCell id="pzt994sn538-VgkILGdD-7" value="Logo" style="text;html=1;strokeColor=none;fillColor=none;align=center;verticalAlign=middle;whiteSpace=wrap;rounded=0;" parent="1" vertex="1">
          <mxGeometry x="65" y="60" width="40" height="20" as="geometry" />
        </mxCell>
        <mxCell id="pzt994sn538-VgkILGdD-8" value="" style="rounded=1;whiteSpace=wrap;html=1;" parent="1" vertex="1">
          <mxGeometry x="145" y="55" width="80" height="30" as="geometry" />
        </mxCell>
        <mxCell id="pzt994sn538-VgkILGdD-9" value="" style="rounded=1;whiteSpace=wrap;html=1;" parent="1" vertex="1">
          <mxGeometry x="595" y="50" width="80" height="40" as="geometry" />
        </mxCell>
        <mxCell id="pzt994sn538-VgkILGdD-12" value="Login" style="text;html=1;strokeColor=none;fillColor=none;align=center;verticalAlign=middle;whiteSpace=wrap;rounded=0;" parent="1" vertex="1">
          <mxGeometry x="615" y="60" width="40" height="20" as="geometry" />
        </mxCell>
        <mxCell id="pzt994sn538-VgkILGdD-19" value="" style="rounded=1;whiteSpace=wrap;html=1;" parent="1" vertex="1">
          <mxGeometry x="690" y="50" width="80" height="40" as="geometry" />
        </mxCell>
        <mxCell id="pzt994sn538-VgkILGdD-21" value="Create&lt;br&gt;Account" style="text;html=1;strokeColor=none;fillColor=none;align=center;verticalAlign=middle;whiteSpace=wrap;rounded=0;" parent="1" vertex="1">
          <mxGeometry x="710" y="60" width="40" height="20" as="geometry" />
        </mxCell>
        <mxCell id="pzt994sn538-VgkILGdD-26" value="" style="rounded=1;whiteSpace=wrap;html=1;" parent="1" vertex="1">
          <mxGeometry x="240" y="55" width="80" height="30" as="geometry" />
        </mxCell>
        <mxCell id="pzt994sn538-VgkILGdD-27" value="" style="rounded=1;whiteSpace=wrap;html=1;" parent="1" vertex="1">
          <mxGeometry x="340" y="55" width="80" height="30" as="geometry" />
        </mxCell>
        <mxCell id="pzt994sn538-VgkILGdD-22" value="Company" style="text;html=1;strokeColor=none;fillColor=none;align=center;verticalAlign=middle;whiteSpace=wrap;rounded=0;" parent="1" vertex="1">
          <mxGeometry x="170" y="60" width="40" height="20" as="geometry" />
        </mxCell>
        <mxCell id="pzt994sn538-VgkILGdD-29" value="Interview" style="text;html=1;strokeColor=none;fillColor=none;align=center;verticalAlign=middle;whiteSpace=wrap;rounded=0;" parent="1" vertex="1">
          <mxGeometry x="260" y="60" width="40" height="20" as="geometry" />
        </mxCell>
        <mxCell id="pzt994sn538-VgkILGdD-32" value="Q&amp;amp;A" style="text;html=1;strokeColor=none;fillColor=none;align=center;verticalAlign=middle;whiteSpace=wrap;rounded=0;" parent="1" vertex="1">
          <mxGeometry x="357.5" y="60" width="40" height="20" as="geometry" />
        </mxCell>
        <mxCell id="pzt994sn538-VgkILGdD-33" value="" style="rounded=1;whiteSpace=wrap;html=1;" parent="1" vertex="1">
          <mxGeometry x="145" y="240" width="510" height="45" as="geometry" />
        </mxCell>
        <mxCell id="pzt994sn538-VgkILGdD-34" value="" style="rounded=1;whiteSpace=wrap;html=1;" parent="1" vertex="1">
          <mxGeometry x="210" y="150" width="400" height="50" as="geometry" />
        </mxCell>
        <mxCell id="pzt994sn538-VgkILGdD-36" value="&amp;nbsp;Search Bar" style="text;html=1;strokeColor=none;fillColor=none;align=center;verticalAlign=middle;whiteSpace=wrap;rounded=0;" parent="1" vertex="1">
          <mxGeometry x="360" y="247.5" width="80" height="30" as="geometry" />
        </mxCell>
        <mxCell id="pzt994sn538-VgkILGdD-46" value="Text" style="text;html=1;strokeColor=none;fillColor=none;align=center;verticalAlign=middle;whiteSpace=wrap;rounded=0;" parent="1" vertex="1">
          <mxGeometry x="357.5" y="165" width="85" height="20" as="geometry" />
        </mxCell>
        <mxCell id="pzt994sn538-VgkILGdD-47" value="" style="rounded=0;whiteSpace=wrap;html=1;" parent="1" vertex="1">
          <mxGeometry x="180" y="320" width="120" height="90" as="geometry" />
        </mxCell>
        <mxCell id="pzt994sn538-VgkILGdD-50" value="" style="rounded=0;whiteSpace=wrap;html=1;" parent="1" vertex="1">
          <mxGeometry x="340" y="320" width="120" height="90" as="geometry" />
        </mxCell>
        <mxCell id="pzt994sn538-VgkILGdD-51" value="" style="rounded=0;whiteSpace=wrap;html=1;" parent="1" vertex="1">
          <mxGeometry x="500" y="320" width="120" height="90" as="geometry" />
        </mxCell>
        <mxCell id="pzt994sn538-VgkILGdD-52" value="" style="shape=umlDestroy;whiteSpace=wrap;html=1;strokeWidth=3;" parent="1" vertex="1">
          <mxGeometry x="180" y="320" width="120" height="90" as="geometry" />
        </mxCell>
        <mxCell id="pzt994sn538-VgkILGdD-53" value="" style="shape=umlDestroy;whiteSpace=wrap;html=1;strokeWidth=3;" parent="1" vertex="1">
          <mxGeometry x="340" y="320" width="120" height="90" as="geometry" />
        </mxCell>
        <mxCell id="pzt994sn538-VgkILGdD-54" value="" style="shape=umlDestroy;whiteSpace=wrap;html=1;strokeWidth=3;" parent="1" vertex="1">
          <mxGeometry x="500" y="320" width="120" height="90" as="geometry" />
        </mxCell>
        <mxCell id="pzt994sn538-VgkILGdD-57" value="" style="rounded=0;whiteSpace=wrap;html=1;" parent="1" vertex="1">
          <mxGeometry x="30" y="520" width="770" height="470" as="geometry" />
        </mxCell>
        <mxCell id="pzt994sn538-VgkILGdD-58" value="" style="rounded=0;whiteSpace=wrap;html=1;" parent="1" vertex="1">
          <mxGeometry x="40" y="560" width="740" height="50" as="geometry" />
        </mxCell>
        <mxCell id="pzt994sn538-VgkILGdD-59" value="Logo" style="text;html=1;strokeColor=none;fillColor=none;align=center;verticalAlign=middle;whiteSpace=wrap;rounded=0;" parent="1" vertex="1">
          <mxGeometry x="80" y="575" width="40" height="20" as="geometry" />
        </mxCell>
        <mxCell id="pzt994sn538-VgkILGdD-60" value="" style="ellipse;whiteSpace=wrap;html=1;" parent="1" vertex="1">
          <mxGeometry x="60" y="560" width="70" height="50" as="geometry" />
        </mxCell>
        <mxCell id="pzt994sn538-VgkILGdD-61" value="" style="rounded=1;whiteSpace=wrap;html=1;" parent="1" vertex="1">
          <mxGeometry x="145" y="570" width="80" height="30" as="geometry" />
        </mxCell>
        <mxCell id="pzt994sn538-VgkILGdD-62" value="" style="rounded=1;whiteSpace=wrap;html=1;" parent="1" vertex="1">
          <mxGeometry x="240" y="570" width="80" height="30" as="geometry" />
        </mxCell>
        <mxCell id="pzt994sn538-VgkILGdD-67" value="" style="rounded=1;whiteSpace=wrap;html=1;" parent="1" vertex="1">
          <mxGeometry x="340" y="570" width="80" height="30" as="geometry" />
        </mxCell>
        <mxCell id="pzt994sn538-VgkILGdD-68" value="Logo" style="text;html=1;strokeColor=none;fillColor=none;align=center;verticalAlign=middle;whiteSpace=wrap;rounded=0;" parent="1" vertex="1">
          <mxGeometry x="75" y="575" width="40" height="20" as="geometry" />
        </mxCell>
        <mxCell id="pzt994sn538-VgkILGdD-69" value="Company" style="text;html=1;strokeColor=none;fillColor=none;align=center;verticalAlign=middle;whiteSpace=wrap;rounded=0;" parent="1" vertex="1">
          <mxGeometry x="165" y="575" width="40" height="20" as="geometry" />
        </mxCell>
        <mxCell id="pzt994sn538-VgkILGdD-70" value="Interview" style="text;html=1;strokeColor=none;fillColor=none;align=center;verticalAlign=middle;whiteSpace=wrap;rounded=0;" parent="1" vertex="1">
          <mxGeometry x="260" y="575" width="40" height="20" as="geometry" />
        </mxCell>
        <mxCell id="pzt994sn538-VgkILGdD-71" value="Q&amp;amp;A" style="text;html=1;strokeColor=none;fillColor=none;align=center;verticalAlign=middle;whiteSpace=wrap;rounded=0;" parent="1" vertex="1">
          <mxGeometry x="360" y="575" width="40" height="20" as="geometry" />
        </mxCell>
        <mxCell id="pzt994sn538-VgkILGdD-72" value="" style="rounded=1;whiteSpace=wrap;html=1;fillColor=#C4C4C4;" parent="1" vertex="1">
          <mxGeometry x="595" y="565" width="80" height="40" as="geometry" />
        </mxCell>
        <mxCell id="pzt994sn538-VgkILGdD-73" value="" style="rounded=1;whiteSpace=wrap;html=1;" parent="1" vertex="1">
          <mxGeometry x="690" y="565" width="80" height="40" as="geometry" />
        </mxCell>
        <mxCell id="pzt994sn538-VgkILGdD-74" value="Login" style="text;html=1;strokeColor=none;fillColor=none;align=center;verticalAlign=middle;whiteSpace=wrap;rounded=0;" parent="1" vertex="1">
          <mxGeometry x="615" y="575" width="40" height="20" as="geometry" />
        </mxCell>
        <mxCell id="pzt994sn538-VgkILGdD-75" value="Create&lt;br&gt;Account" style="text;html=1;strokeColor=none;fillColor=none;align=center;verticalAlign=middle;whiteSpace=wrap;rounded=0;" parent="1" vertex="1">
          <mxGeometry x="710" y="575" width="40" height="20" as="geometry" />
        </mxCell>
        <mxCell id="pzt994sn538-VgkILGdD-77" value="" style="rounded=1;whiteSpace=wrap;html=1;fillColor=#FFFFFF;" parent="1" vertex="1">
          <mxGeometry x="60" y="630" width="700" height="320" as="geometry" />
        </mxCell>
        <mxCell id="pzt994sn538-VgkILGdD-78" value="" style="rounded=0;whiteSpace=wrap;html=1;" parent="1" vertex="1">
          <mxGeometry x="90" y="660" width="310" height="270" as="geometry" />
        </mxCell>
        <mxCell id="pzt994sn538-VgkILGdD-79" value="" style="shape=umlDestroy;whiteSpace=wrap;html=1;strokeWidth=3;" parent="1" vertex="1">
          <mxGeometry x="90" y="660" width="310" height="270" as="geometry" />
        </mxCell>
        <mxCell id="pzt994sn538-VgkILGdD-81" value="" style="rounded=1;whiteSpace=wrap;html=1;fillColor=#FFFFFF;" parent="1" vertex="1">
          <mxGeometry x="470" y="670" width="240" height="30" as="geometry" />
        </mxCell>
        <mxCell id="pzt994sn538-VgkILGdD-80" value="Login to Continue&amp;nbsp;" style="text;html=1;strokeColor=none;fillColor=none;align=center;verticalAlign=middle;whiteSpace=wrap;rounded=0;" parent="1" vertex="1">
          <mxGeometry x="535" y="675" width="110" height="20" as="geometry" />
        </mxCell>
        <mxCell id="pzt994sn538-VgkILGdD-82" value="" style="rounded=1;whiteSpace=wrap;html=1;fillColor=#FFFFFF;" parent="1" vertex="1">
          <mxGeometry x="550" y="740" width="160" height="20" as="geometry" />
        </mxCell>
        <mxCell id="pzt994sn538-VgkILGdD-83" value="" style="rounded=1;whiteSpace=wrap;html=1;fillColor=#FFFFFF;" parent="1" vertex="1">
          <mxGeometry x="550" y="790" width="160" height="20" as="geometry" />
        </mxCell>
        <mxCell id="pzt994sn538-VgkILGdD-85" value="" style="rounded=1;whiteSpace=wrap;html=1;fillColor=#FFFFFF;" parent="1" vertex="1">
          <mxGeometry x="560" y="830" width="120" height="30" as="geometry" />
        </mxCell>
        <mxCell id="pzt994sn538-VgkILGdD-86" value="User Name" style="text;html=1;strokeColor=none;fillColor=none;align=center;verticalAlign=middle;whiteSpace=wrap;rounded=0;" parent="1" vertex="1">
          <mxGeometry x="470" y="740" width="70" height="20" as="geometry" />
        </mxCell>
        <mxCell id="pzt994sn538-VgkILGdD-87" value="Password" style="text;html=1;strokeColor=none;fillColor=none;align=center;verticalAlign=middle;whiteSpace=wrap;rounded=0;" parent="1" vertex="1">
          <mxGeometry x="485" y="790" width="40" height="20" as="geometry" />
        </mxCell>
        <mxCell id="pzt994sn538-VgkILGdD-88" value="LOGIN" style="text;html=1;strokeColor=none;fillColor=none;align=center;verticalAlign=middle;whiteSpace=wrap;rounded=0;" parent="1" vertex="1">
          <mxGeometry x="595" y="835" width="40" height="20" as="geometry" />
        </mxCell>
        <mxCell id="pzt994sn538-VgkILGdD-89" value="Forgot user name/password" style="text;html=1;strokeColor=none;fillColor=none;align=center;verticalAlign=middle;whiteSpace=wrap;rounded=0;" parent="1" vertex="1">
          <mxGeometry x="540" y="870" width="157.5" height="20" as="geometry" />
        </mxCell>
        <mxCell id="pzt994sn538-VgkILGdD-90" value="" style="rounded=0;whiteSpace=wrap;html=1;" parent="1" vertex="1">
          <mxGeometry x="30" y="1040" width="770" height="470" as="geometry" />
        </mxCell>
        <mxCell id="pzt994sn538-VgkILGdD-91" value="" style="rounded=0;whiteSpace=wrap;html=1;" parent="1" vertex="1">
          <mxGeometry x="45" y="1080" width="740" height="50" as="geometry" />
        </mxCell>
        <mxCell id="pzt994sn538-VgkILGdD-92" value="" style="ellipse;whiteSpace=wrap;html=1;" parent="1" vertex="1">
          <mxGeometry x="60" y="1080" width="70" height="50" as="geometry" />
        </mxCell>
        <mxCell id="pzt994sn538-VgkILGdD-93" value="" style="rounded=1;whiteSpace=wrap;html=1;" parent="1" vertex="1">
          <mxGeometry x="150" y="1090" width="80" height="30" as="geometry" />
        </mxCell>
        <mxCell id="pzt994sn538-VgkILGdD-94" value="" style="rounded=1;whiteSpace=wrap;html=1;" parent="1" vertex="1">
          <mxGeometry x="240" y="1090" width="80" height="30" as="geometry" />
        </mxCell>
        <mxCell id="pzt994sn538-VgkILGdD-95" value="" style="rounded=1;whiteSpace=wrap;html=1;" parent="1" vertex="1">
          <mxGeometry x="337.5" y="1090" width="80" height="30" as="geometry" />
        </mxCell>
        <mxCell id="pzt994sn538-VgkILGdD-96" value="" style="rounded=1;whiteSpace=wrap;html=1;" parent="1" vertex="1">
          <mxGeometry x="595" y="1085" width="80" height="40" as="geometry" />
        </mxCell>
        <mxCell id="pzt994sn538-VgkILGdD-97" value="" style="rounded=1;whiteSpace=wrap;html=1;fillColor=#C4C4C4;" parent="1" vertex="1">
          <mxGeometry x="690" y="1085" width="80" height="40" as="geometry" />
        </mxCell>
        <mxCell id="pzt994sn538-VgkILGdD-98" value="Logo" style="text;html=1;strokeColor=none;fillColor=none;align=center;verticalAlign=middle;whiteSpace=wrap;rounded=0;" parent="1" vertex="1">
          <mxGeometry x="75" y="1095" width="40" height="20" as="geometry" />
        </mxCell>
        <mxCell id="pzt994sn538-VgkILGdD-99" value="Company" style="text;html=1;strokeColor=none;fillColor=none;align=center;verticalAlign=middle;whiteSpace=wrap;rounded=0;" parent="1" vertex="1">
          <mxGeometry x="170" y="1095" width="40" height="20" as="geometry" />
        </mxCell>
        <mxCell id="pzt994sn538-VgkILGdD-100" value="Interview" style="text;html=1;strokeColor=none;fillColor=none;align=center;verticalAlign=middle;whiteSpace=wrap;rounded=0;" parent="1" vertex="1">
          <mxGeometry x="260" y="1095" width="40" height="20" as="geometry" />
        </mxCell>
        <mxCell id="pzt994sn538-VgkILGdD-101" value="Q&amp;amp;A" style="text;html=1;strokeColor=none;fillColor=none;align=center;verticalAlign=middle;whiteSpace=wrap;rounded=0;" parent="1" vertex="1">
          <mxGeometry x="357.5" y="1095" width="40" height="20" as="geometry" />
        </mxCell>
        <mxCell id="pzt994sn538-VgkILGdD-102" value="Login" style="text;html=1;strokeColor=none;fillColor=none;align=center;verticalAlign=middle;whiteSpace=wrap;rounded=0;" parent="1" vertex="1">
          <mxGeometry x="615" y="1095" width="40" height="20" as="geometry" />
        </mxCell>
        <mxCell id="pzt994sn538-VgkILGdD-103" value="Create&lt;br&gt;Account" style="text;html=1;strokeColor=none;fillColor=none;align=center;verticalAlign=middle;whiteSpace=wrap;rounded=0;" parent="1" vertex="1">
          <mxGeometry x="710" y="1095" width="40" height="20" as="geometry" />
        </mxCell>
        <mxCell id="pzt994sn538-VgkILGdD-105" value="" style="rounded=1;whiteSpace=wrap;html=1;fillColor=#FFFFFF;" parent="1" vertex="1">
          <mxGeometry x="65" y="1160" width="700" height="320" as="geometry" />
        </mxCell>
        <mxCell id="pzt994sn538-VgkILGdD-106" value="" style="rounded=0;whiteSpace=wrap;html=1;" parent="1" vertex="1">
          <mxGeometry x="85" y="1185" width="310" height="270" as="geometry" />
        </mxCell>
        <mxCell id="pzt994sn538-VgkILGdD-107" value="" style="shape=umlDestroy;whiteSpace=wrap;html=1;strokeWidth=3;" parent="1" vertex="1">
          <mxGeometry x="85" y="1185" width="310" height="270" as="geometry" />
        </mxCell>
        <mxCell id="pzt994sn538-VgkILGdD-108" value="" style="rounded=1;whiteSpace=wrap;html=1;fillColor=#FFFFFF;" parent="1" vertex="1">
          <mxGeometry x="550" y="1250" width="160" height="20" as="geometry" />
        </mxCell>
        <mxCell id="pzt994sn538-VgkILGdD-109" value="" style="rounded=1;whiteSpace=wrap;html=1;fillColor=#FFFFFF;" parent="1" vertex="1">
          <mxGeometry x="470" y="1200" width="240" height="30" as="geometry" />
        </mxCell>
        <mxCell id="pzt994sn538-VgkILGdD-110" value="" style="rounded=1;whiteSpace=wrap;html=1;fillColor=#FFFFFF;" parent="1" vertex="1">
          <mxGeometry x="550" y="1290" width="160" height="20" as="geometry" />
        </mxCell>
        <mxCell id="pzt994sn538-VgkILGdD-111" value="" style="rounded=1;whiteSpace=wrap;html=1;fillColor=#FFFFFF;" parent="1" vertex="1">
          <mxGeometry x="550" y="1330" width="160" height="20" as="geometry" />
        </mxCell>
        <mxCell id="pzt994sn538-VgkILGdD-112" value="" style="rounded=1;whiteSpace=wrap;html=1;fillColor=#FFFFFF;" parent="1" vertex="1">
          <mxGeometry x="570" y="1410" width="120" height="30" as="geometry" />
        </mxCell>
        <mxCell id="pzt994sn538-VgkILGdD-113" value="Name" style="text;html=1;strokeColor=none;fillColor=none;align=center;verticalAlign=middle;whiteSpace=wrap;rounded=0;" parent="1" vertex="1">
          <mxGeometry x="470" y="1250" width="70" height="20" as="geometry" />
        </mxCell>
        <mxCell id="pzt994sn538-VgkILGdD-114" value="Email" style="text;html=1;strokeColor=none;fillColor=none;align=center;verticalAlign=middle;whiteSpace=wrap;rounded=0;" parent="1" vertex="1">
          <mxGeometry x="470" y="1290" width="70" height="20" as="geometry" />
        </mxCell>
        <mxCell id="pzt994sn538-VgkILGdD-115" value="" style="rounded=1;whiteSpace=wrap;html=1;fillColor=#FFFFFF;" parent="1" vertex="1">
          <mxGeometry x="550" y="1370" width="160" height="20" as="geometry" />
        </mxCell>
        <mxCell id="pzt994sn538-VgkILGdD-116" value="Password" style="text;html=1;strokeColor=none;fillColor=none;align=center;verticalAlign=middle;whiteSpace=wrap;rounded=0;" parent="1" vertex="1">
          <mxGeometry x="485" y="1330" width="40" height="20" as="geometry" />
        </mxCell>
        <mxCell id="pzt994sn538-VgkILGdD-117" value="Confirm Password" style="text;html=1;strokeColor=none;fillColor=none;align=center;verticalAlign=middle;whiteSpace=wrap;rounded=0;" parent="1" vertex="1">
          <mxGeometry x="485" y="1370" width="40" height="20" as="geometry" />
        </mxCell>
        <mxCell id="pzt994sn538-VgkILGdD-118" value="SIGN&amp;nbsp;IN" style="text;html=1;strokeColor=none;fillColor=none;align=center;verticalAlign=middle;whiteSpace=wrap;rounded=0;" parent="1" vertex="1">
          <mxGeometry x="605" y="1415" width="40" height="20" as="geometry" />
        </mxCell>
        <mxCell id="pzt994sn538-VgkILGdD-119" value="CREATE&amp;nbsp;ACCOUNT" style="text;html=1;strokeColor=none;fillColor=none;align=center;verticalAlign=middle;whiteSpace=wrap;rounded=0;" parent="1" vertex="1">
          <mxGeometry x="570" y="1205" width="40" height="20" as="geometry" />
        </mxCell>
        <mxCell id="vnBl0kwMSMP2HQ0ZwQBN-1" value="" style="rounded=0;whiteSpace=wrap;html=1;" parent="1" vertex="1">
          <mxGeometry x="30" y="1540" width="770" height="470" as="geometry" />
        </mxCell>
        <mxCell id="vnBl0kwMSMP2HQ0ZwQBN-2" value="" style="rounded=0;whiteSpace=wrap;html=1;" parent="1" vertex="1">
          <mxGeometry x="45" y="1580" width="740" height="50" as="geometry" />
        </mxCell>
        <mxCell id="vnBl0kwMSMP2HQ0ZwQBN-3" value="" style="ellipse;whiteSpace=wrap;html=1;" parent="1" vertex="1">
          <mxGeometry x="60" y="1580" width="70" height="50" as="geometry" />
        </mxCell>
        <mxCell id="vnBl0kwMSMP2HQ0ZwQBN-4" value="" style="rounded=1;whiteSpace=wrap;html=1;fillColor=#C4C4C4;" parent="1" vertex="1">
          <mxGeometry x="150" y="1590" width="80" height="30" as="geometry" />
        </mxCell>
        <mxCell id="vnBl0kwMSMP2HQ0ZwQBN-5" value="" style="rounded=1;whiteSpace=wrap;html=1;" parent="1" vertex="1">
          <mxGeometry x="240" y="1590" width="80" height="30" as="geometry" />
        </mxCell>
        <mxCell id="vnBl0kwMSMP2HQ0ZwQBN-6" value="" style="rounded=1;whiteSpace=wrap;html=1;" parent="1" vertex="1">
          <mxGeometry x="337.5" y="1590" width="80" height="30" as="geometry" />
        </mxCell>
        <mxCell id="vnBl0kwMSMP2HQ0ZwQBN-7" value="" style="rounded=1;whiteSpace=wrap;html=1;" parent="1" vertex="1">
          <mxGeometry x="590" y="1585" width="80" height="40" as="geometry" />
        </mxCell>
        <mxCell id="vnBl0kwMSMP2HQ0ZwQBN-8" value="" style="rounded=1;whiteSpace=wrap;html=1;" parent="1" vertex="1">
          <mxGeometry x="690" y="1585" width="80" height="40" as="geometry" />
        </mxCell>
        <mxCell id="vnBl0kwMSMP2HQ0ZwQBN-9" value="Create&lt;br&gt;Account" style="text;html=1;strokeColor=none;fillColor=none;align=center;verticalAlign=middle;whiteSpace=wrap;rounded=0;" parent="1" vertex="1">
          <mxGeometry x="710" y="1595" width="40" height="20" as="geometry" />
        </mxCell>
        <mxCell id="vnBl0kwMSMP2HQ0ZwQBN-10" value="Login" style="text;html=1;strokeColor=none;fillColor=none;align=center;verticalAlign=middle;whiteSpace=wrap;rounded=0;" parent="1" vertex="1">
          <mxGeometry x="615" y="1595" width="40" height="20" as="geometry" />
        </mxCell>
        <mxCell id="vnBl0kwMSMP2HQ0ZwQBN-11" value="Q&amp;amp;A" style="text;html=1;strokeColor=none;fillColor=none;align=center;verticalAlign=middle;whiteSpace=wrap;rounded=0;" parent="1" vertex="1">
          <mxGeometry x="357.5" y="1595" width="40" height="20" as="geometry" />
        </mxCell>
        <mxCell id="vnBl0kwMSMP2HQ0ZwQBN-12" value="Interview" style="text;html=1;strokeColor=none;fillColor=none;align=center;verticalAlign=middle;whiteSpace=wrap;rounded=0;" parent="1" vertex="1">
          <mxGeometry x="260" y="1595" width="40" height="20" as="geometry" />
        </mxCell>
        <mxCell id="vnBl0kwMSMP2HQ0ZwQBN-13" value="Company" style="text;html=1;strokeColor=none;fillColor=none;align=center;verticalAlign=middle;whiteSpace=wrap;rounded=0;" parent="1" vertex="1">
          <mxGeometry x="170" y="1595" width="40" height="20" as="geometry" />
        </mxCell>
        <mxCell id="vnBl0kwMSMP2HQ0ZwQBN-14" value="Logo" style="text;html=1;strokeColor=none;fillColor=none;align=center;verticalAlign=middle;whiteSpace=wrap;rounded=0;" parent="1" vertex="1">
          <mxGeometry x="75" y="1595" width="40" height="20" as="geometry" />
        </mxCell>
        <mxCell id="vnBl0kwMSMP2HQ0ZwQBN-15" value="" style="rounded=1;whiteSpace=wrap;html=1;fillColor=#FFFFFF;" parent="1" vertex="1">
          <mxGeometry x="40" y="1650" width="140" height="340" as="geometry" />
        </mxCell>
        <mxCell id="vnBl0kwMSMP2HQ0ZwQBN-17" value="Text" style="text;html=1;strokeColor=none;fillColor=none;align=center;verticalAlign=middle;whiteSpace=wrap;rounded=0;" parent="1" vertex="1">
          <mxGeometry x="80" y="1700" width="40" height="20" as="geometry" />
        </mxCell>
        <mxCell id="vnBl0kwMSMP2HQ0ZwQBN-18" value="Text" style="text;html=1;strokeColor=none;fillColor=none;align=center;verticalAlign=middle;whiteSpace=wrap;rounded=0;" parent="1" vertex="1">
          <mxGeometry x="80" y="1720" width="40" height="20" as="geometry" />
        </mxCell>
        <mxCell id="vnBl0kwMSMP2HQ0ZwQBN-19" value="Text" style="text;html=1;strokeColor=none;fillColor=none;align=center;verticalAlign=middle;whiteSpace=wrap;rounded=0;" parent="1" vertex="1">
          <mxGeometry x="80" y="1740" width="40" height="20" as="geometry" />
        </mxCell>
        <mxCell id="vnBl0kwMSMP2HQ0ZwQBN-20" value="" style="rounded=1;whiteSpace=wrap;html=1;fillColor=#FFFFFF;" parent="1" vertex="1">
          <mxGeometry x="210" y="1660" width="570" height="320" as="geometry" />
        </mxCell>
        <mxCell id="vnBl0kwMSMP2HQ0ZwQBN-21" value="" style="rounded=0;whiteSpace=wrap;html=1;" parent="1" vertex="1">
          <mxGeometry x="283.75" y="1695" width="110" height="100" as="geometry" />
        </mxCell>
        <mxCell id="vnBl0kwMSMP2HQ0ZwQBN-24" value="" style="rounded=0;whiteSpace=wrap;html=1;" parent="1" vertex="1">
          <mxGeometry x="438.75" y="1695" width="110" height="100" as="geometry" />
        </mxCell>
        <mxCell id="vnBl0kwMSMP2HQ0ZwQBN-25" value="" style="rounded=0;whiteSpace=wrap;html=1;" parent="1" vertex="1">
          <mxGeometry x="585" y="1695" width="110" height="100" as="geometry" />
        </mxCell>
        <mxCell id="vnBl0kwMSMP2HQ0ZwQBN-26" value="" style="rounded=0;whiteSpace=wrap;html=1;" parent="1" vertex="1">
          <mxGeometry x="283.75" y="1850" width="110" height="100" as="geometry" />
        </mxCell>
        <mxCell id="vnBl0kwMSMP2HQ0ZwQBN-27" value="" style="rounded=0;whiteSpace=wrap;html=1;" parent="1" vertex="1">
          <mxGeometry x="440" y="1850" width="110" height="100" as="geometry" />
        </mxCell>
        <mxCell id="vnBl0kwMSMP2HQ0ZwQBN-28" value="" style="rounded=0;whiteSpace=wrap;html=1;" parent="1" vertex="1">
          <mxGeometry x="586.25" y="1850" width="110" height="100" as="geometry" />
        </mxCell>
        <mxCell id="vnBl0kwMSMP2HQ0ZwQBN-29" value="Text" style="text;html=1;strokeColor=none;fillColor=none;align=center;verticalAlign=middle;whiteSpace=wrap;rounded=0;" parent="1" vertex="1">
          <mxGeometry x="80" y="1760" width="40" height="20" as="geometry" />
        </mxCell>
        <mxCell id="vnBl0kwMSMP2HQ0ZwQBN-30" value="Text" style="text;html=1;strokeColor=none;fillColor=none;align=center;verticalAlign=middle;whiteSpace=wrap;rounded=0;" parent="1" vertex="1">
          <mxGeometry x="80" y="1780" width="40" height="20" as="geometry" />
        </mxCell>
        <mxCell id="vnBl0kwMSMP2HQ0ZwQBN-32" value="Text" style="text;html=1;strokeColor=none;fillColor=none;align=center;verticalAlign=middle;whiteSpace=wrap;rounded=0;" parent="1" vertex="1">
          <mxGeometry x="80" y="1800" width="40" height="20" as="geometry" />
        </mxCell>
        <mxCell id="vnBl0kwMSMP2HQ0ZwQBN-33" value="" style="shape=umlDestroy;whiteSpace=wrap;html=1;strokeWidth=3;" parent="1" vertex="1">
          <mxGeometry x="286.25" y="1695" width="107.5" height="100" as="geometry" />
        </mxCell>
        <mxCell id="vnBl0kwMSMP2HQ0ZwQBN-34" value="" style="shape=umlDestroy;whiteSpace=wrap;html=1;strokeWidth=3;" parent="1" vertex="1">
          <mxGeometry x="438.75" y="1695" width="107.5" height="100" as="geometry" />
        </mxCell>
        <mxCell id="vnBl0kwMSMP2HQ0ZwQBN-35" value="" style="shape=umlDestroy;whiteSpace=wrap;html=1;strokeWidth=3;" parent="1" vertex="1">
          <mxGeometry x="586.25" y="1695" width="107.5" height="100" as="geometry" />
        </mxCell>
        <mxCell id="vnBl0kwMSMP2HQ0ZwQBN-36" value="" style="shape=umlDestroy;whiteSpace=wrap;html=1;strokeWidth=3;" parent="1" vertex="1">
          <mxGeometry x="287.5" y="1850" width="107.5" height="100" as="geometry" />
        </mxCell>
        <mxCell id="vnBl0kwMSMP2HQ0ZwQBN-37" value="" style="shape=umlDestroy;whiteSpace=wrap;html=1;strokeWidth=3;" parent="1" vertex="1">
          <mxGeometry x="442.5" y="1850" width="107.5" height="100" as="geometry" />
        </mxCell>
        <mxCell id="vnBl0kwMSMP2HQ0ZwQBN-38" value="" style="shape=umlDestroy;whiteSpace=wrap;html=1;strokeWidth=3;" parent="1" vertex="1">
          <mxGeometry x="587.5" y="1850" width="107.5" height="100" as="geometry" />
        </mxCell>
        <mxCell id="vnBl0kwMSMP2HQ0ZwQBN-43" value="" style="rounded=1;whiteSpace=wrap;html=1;fillColor=#C4C4C4;" parent="1" vertex="1">
          <mxGeometry x="50" y="1670" width="90" height="30" as="geometry" />
        </mxCell>
        <mxCell id="vnBl0kwMSMP2HQ0ZwQBN-16" value="Company" style="text;html=1;strokeColor=none;fillColor=none;align=center;verticalAlign=middle;whiteSpace=wrap;rounded=0;" parent="1" vertex="1">
          <mxGeometry x="75" y="1675" width="40" height="20" as="geometry" />
        </mxCell>
        <mxCell id="vnBl0kwMSMP2HQ0ZwQBN-48" value="" style="rounded=1;whiteSpace=wrap;html=1;fillColor=#FFFFFF;" parent="1" vertex="1">
          <mxGeometry x="50" y="1865" width="90" height="30" as="geometry" />
        </mxCell>
        <mxCell id="vnBl0kwMSMP2HQ0ZwQBN-42" value="Q&amp;amp;A" style="text;html=1;strokeColor=none;fillColor=none;align=center;verticalAlign=middle;whiteSpace=wrap;rounded=0;" parent="1" vertex="1">
          <mxGeometry x="72.5" y="1870" width="40" height="20" as="geometry" />
        </mxCell>
        <mxCell id="vnBl0kwMSMP2HQ0ZwQBN-50" value="" style="rounded=1;whiteSpace=wrap;html=1;fillColor=#FFFFFF;" parent="1" vertex="1">
          <mxGeometry x="50" y="1825" width="90" height="30" as="geometry" />
        </mxCell>
        <mxCell id="vnBl0kwMSMP2HQ0ZwQBN-41" value="Interview" style="text;html=1;strokeColor=none;fillColor=none;align=center;verticalAlign=middle;whiteSpace=wrap;rounded=0;" parent="1" vertex="1">
          <mxGeometry x="75" y="1830" width="40" height="20" as="geometry" />
        </mxCell>
      </root>
    </mxGraphModel>
  </diagram>
</mxfile>
